<?xml version="1.0" encoding="UTF-8"?>
<svg width="1180px" height="213px" viewBox="0 0 1180 213" version="1.1" xmlns="http://www.w3.org/2000/svg" xmlns:xlink="http://www.w3.org/1999/xlink">
    <title>Rectangle Logo</title>
    <defs>
        <path d="M25.0244141,185.237305 L58.1679688,29.5654297 L42.7431641,29.5654297 L9.59960938,185.237305 L25.0244141,185.237305 Z M61.4111328,185.237305 L74.9375,121.876953 L84.9833984,121.402344 L92.8935547,185.237305 L109.979492,185.237305 L97.9560547,119.583008 C111.983398,115.311523 120.157227,107.665039 122.477539,96.6435547 L122.477539,96.6435547 L127.144531,74.9697266 C127.777344,71.9111328 128.09375,69.1162109 128.09375,66.5849609 C128.09375,54.4033203 120.579102,48.2861328 105.549805,48.2333984 L105.549805,48.2333984 L75.1748047,48.2333984 L45.9863281,185.237305 L61.4111328,185.237305 Z M86.8818359,110.09082 L77.3896484,110.09082 L87.7519531,61.5224609 L100.25,61.5224609 C108.212891,61.5224609 112.194336,64.6337891 112.194336,70.8564453 C112.194336,72.1220703 112.036133,73.4931641 111.719727,74.9697266 L111.719727,74.9697266 L107.052734,96.6435547 C105.734375,102.866211 101.832031,107.084961 95.3457031,109.299805 C93.5,109.827148 90.6787109,110.09082 86.8818359,110.09082 L86.8818359,110.09082 Z M146.603516,187.926758 C166.537109,187.874023 178.402344,178.961914 182.199219,161.19043 L182.199219,161.19043 L200.946289,72.9130859 C201.579102,70.0654297 201.895508,67.4550781 201.895508,65.0820312 C201.895508,52.53125 193.510742,46.2558594 176.741211,46.2558594 C156.860352,46.2558594 145.021484,55.1416016 141.224609,72.9130859 L141.224609,72.9130859 L122.477539,161.19043 C121.844727,164.038086 121.52832,166.674805 121.52832,169.100586 C121.52832,181.651367 129.886719,187.926758 146.603516,187.926758 Z M149.451172,174.558594 C141.435547,174.558594 137.427734,171.447266 137.427734,165.224609 C137.427734,164.011719 137.585938,162.666992 137.902344,161.19043 L137.902344,161.19043 L156.649414,72.9130859 C158.547852,64.0009766 164.269531,59.5449219 173.814453,59.5449219 L173.814453,59.5449219 L173.972656,59.5449219 C181.988281,59.5976562 185.996094,62.7089844 185.996094,68.8789062 C185.996094,70.0917969 185.837891,71.4365234 185.521484,72.9130859 L185.521484,72.9130859 L166.774414,161.19043 C164.875977,170.102539 159.101562,174.558594 149.451172,174.558594 Z M210.59668,185.237305 L233.773438,76.3935547 L239.547852,185.237305 L255.763672,185.237305 L284.873047,48.3125 L271.188477,48.5498047 L247.616211,159.450195 L241.446289,48.2333984 L225.230469,48.2333984 L196.041992,185.237305 L210.59668,185.237305 Z M335.893555,187.926758 C355.827148,187.874023 367.956055,177.749023 372.280273,157.551758 L372.280273,157.551758 L376.077148,139.595703 L360.652344,139.595703 L356.855469,157.551758 C354.693359,167.676758 348.787109,172.739258 339.136719,172.739258 C331.279297,172.739258 327.350586,169.364258 327.350586,162.614258 C327.350586,161.084961 327.561523,159.397461 327.983398,157.551758 L327.983398,157.551758 L349.261719,57.2509766 C351.423828,47.1259766 357.277344,42.0634766 366.822266,42.0634766 L366.822266,42.0634766 L366.980469,42.0634766 C374.837891,42.1162109 378.766602,45.4912109 378.766602,52.1884766 C378.766602,53.7177734 378.555664,55.4052734 378.133789,57.2509766 L378.133789,57.2509766 L374.336914,75.2070312 L389.761719,75.2070312 L393.558594,57.2509766 C394.349609,53.6650391 394.745117,50.3955078 394.745117,47.4423828 C394.745117,33.7841797 386.544922,26.9550781 370.144531,26.9550781 C350.263672,26.9550781 338.161133,37.0537109 333.836914,57.2509766 L333.836914,57.2509766 L312.558594,157.551758 C311.767578,161.19043 311.37207,164.486328 311.37207,167.439453 C311.37207,181.097656 319.545898,187.926758 335.893555,187.926758 Z M412.226562,187.926758 C432.160156,187.874023 444.025391,178.961914 447.822266,161.19043 L447.822266,161.19043 L466.569336,72.9130859 C467.202148,70.0654297 467.518555,67.4550781 467.518555,65.0820312 C467.518555,52.53125 459.133789,46.2558594 442.364258,46.2558594 C422.483398,46.2558594 410.644531,55.1416016 406.847656,72.9130859 L406.847656,72.9130859 L388.100586,161.19043 C387.467773,164.038086 387.151367,166.674805 387.151367,169.100586 C387.151367,181.651367 395.509766,187.926758 412.226562,187.926758 Z M415.074219,174.558594 C407.058594,174.558594 403.050781,171.447266 403.050781,165.224609 C403.050781,164.011719 403.208984,162.666992 403.525391,161.19043 L403.525391,161.19043 L422.272461,72.9130859 C424.170898,64.0009766 429.892578,59.5449219 439.4375,59.5449219 L439.4375,59.5449219 L439.595703,59.5449219 C447.611328,59.5976562 451.619141,62.7089844 451.619141,68.8789062 C451.619141,70.0917969 451.460938,71.4365234 451.144531,72.9130859 L451.144531,72.9130859 L432.397461,161.19043 C430.499023,170.102539 424.724609,174.558594 415.074219,174.558594 Z M476.37793,185.237305 L499.712891,75.4443359 L504.617188,185.237305 L514.030273,185.237305 L565.208984,74.4951172 L541.636719,185.237305 L556.033203,185.237305 L585.22168,48.2333984 L569.005859,48.2333984 L514.742188,158.65918 L507.148438,48.2333984 L490.853516,48.2333984 L461.665039,185.237305 L476.37793,185.237305 Z M592.024414,185.237305 L605.234375,123.379883 L613.223633,123.379883 C619.657227,123.379883 624.561523,122.931641 627.936523,122.035156 C641.911133,118.238281 650.295898,109.774414 653.09082,96.6435547 L653.09082,96.6435547 L657.757812,74.9697266 C658.390625,71.9111328 658.707031,69.1162109 658.707031,66.5849609 C658.707031,54.4033203 651.192383,48.2861328 636.163086,48.2333984 L636.163086,48.2333984 L605.788086,48.2333984 L576.599609,185.237305 L592.024414,185.237305 Z M617.495117,110.09082 L608.00293,110.09082 L618.365234,61.5224609 L630.863281,61.5224609 C638.826172,61.5224609 642.807617,64.6337891 642.807617,70.8564453 C642.807617,72.1220703 642.649414,73.4931641 642.333008,74.9697266 L642.333008,74.9697266 L637.666016,96.6435547 C636.347656,102.866211 632.445312,107.084961 625.958984,109.299805 C624.113281,109.827148 621.291992,110.09082 617.495117,110.09082 L617.495117,110.09082 Z M678.640625,187.926758 C698.521484,187.926758 710.360352,179.014648 714.157227,161.19043 L714.157227,161.19043 L718.033203,142.99707 C718.455078,140.94043 718.666016,138.936523 718.666016,136.985352 C718.666016,127.756836 713.814453,119.609375 704.111328,112.542969 C691.771484,103.525391 685.601562,95.5097656 685.601562,88.4960938 C685.601562,87.6523438 685.680664,86.8349609 685.838867,86.0439453 L685.838867,86.0439453 L688.607422,72.9130859 C690.505859,64.0009766 696.227539,59.5449219 705.772461,59.5449219 L705.772461,59.5449219 L705.930664,59.5449219 C713.946289,59.5976562 717.954102,62.7089844 717.954102,68.8789062 C717.954102,70.0917969 717.795898,71.4365234 717.479492,72.9130859 L717.479492,72.9130859 L714.157227,88.7333984 L729.582031,88.7333984 L732.904297,72.9130859 C733.537109,70.0654297 733.853516,67.4550781 733.853516,65.0820312 C733.853516,52.53125 725.46875,46.2558594 708.699219,46.2558594 C688.818359,46.2558594 676.979492,55.1416016 673.182617,72.9130859 L673.182617,72.9130859 L670.334961,86.4394531 C669.860352,88.6015625 669.623047,90.7109375 669.623047,92.7675781 C669.623047,102.154297 674.474609,110.380859 684.177734,117.447266 C696.412109,126.359375 702.529297,134.533203 702.529297,141.96875 C702.529297,142.917969 702.423828,143.84082 702.212891,144.737305 L702.212891,144.737305 L698.732422,161.19043 C696.833984,170.102539 691.085938,174.558594 681.488281,174.558594 C673.419922,174.558594 669.385742,171.447266 669.385742,165.224609 C669.385742,164.011719 669.543945,162.666992 669.860352,161.19043 L669.860352,161.19043 L673.182617,145.370117 L657.757812,145.370117 L654.435547,161.19043 C653.802734,164.038086 653.486328,166.648438 653.486328,169.021484 C653.486328,181.572266 661.871094,187.874023 678.640625,187.926758 Z" id="path-1"></path>
        <path d="M746.46875,185.117188 L761.234375,115.664062 L772.171875,115.664062 L773.773438,108.242188 L744.28125,108.242188 L742.679688,115.664062 L753.65625,115.664062 L738.890625,185.117188 L746.46875,185.117188 Z M770.84375,185.117188 L777.523438,153.828125 L782.484375,153.59375 L786.390625,185.117188 L794.828125,185.117188 L788.890625,152.695312 C795.817708,150.585938 799.854167,146.809896 801,141.367188 L801,141.367188 L803.304688,130.664062 C803.617188,129.153646 803.773438,127.773438 803.773438,126.523438 C803.773438,120.507812 800.0625,117.486979 792.640625,117.460938 L792.640625,117.460938 L777.640625,117.460938 L763.226562,185.117188 L770.84375,185.117188 Z M783.421875,148.007812 L778.734375,148.007812 L783.851562,124.023438 L790.023438,124.023438 C793.955729,124.023438 795.921875,125.559896 795.921875,128.632812 C795.921875,129.257812 795.84375,129.934896 795.6875,130.664062 L795.6875,130.664062 L793.382812,141.367188 C792.731771,144.440104 790.804688,146.523438 787.601562,147.617188 C786.690104,147.877604 785.296875,148.007812 783.421875,148.007812 L783.421875,148.007812 Z M805.257812,185.117188 L810.804688,170 L826.273438,170 L825.296875,185.117188 L833.03125,185.117188 L834.4375,161.875 L835.960938,117.460938 L823.421875,117.460938 L805.960938,162.03125 L797.5625,185.117188 L805.257812,185.117188 Z M826.625,163.4375 L813.070312,163.4375 L828.421875,123.203125 L826.625,163.4375 Z M853.34375,186.445312 C863.1875,186.419271 869.046875,182.018229 870.921875,173.242188 L870.921875,173.242188 L872.5625,165.429688 L864.945312,165.429688 L863.304688,173.242188 C862.367188,177.643229 859.515625,179.84375 854.75,179.84375 C850.791667,179.84375 848.8125,178.307292 848.8125,175.234375 C848.8125,174.635417 848.890625,173.971354 849.046875,173.242188 L849.046875,173.242188 L858.304688,129.648438 C859.242188,125.247396 862.067708,123.046875 866.78125,123.046875 L866.78125,123.046875 L866.859375,123.046875 C870.817708,123.072917 872.796875,124.609375 872.796875,127.65625 C872.796875,128.255208 872.71875,128.919271 872.5625,129.648438 L872.5625,129.648438 L870.921875,137.460938 L878.539062,137.460938 L880.179688,129.648438 C880.492188,128.242188 880.648438,126.953125 880.648438,125.78125 C880.648438,119.583333 876.507812,116.484375 868.226562,116.484375 C858.408854,116.484375 852.5625,120.872396 850.6875,129.648438 L850.6875,129.648438 L841.429688,173.242188 C841.117188,174.648438 840.960938,175.950521 840.960938,177.148438 C840.960938,183.346354 845.088542,186.445312 853.34375,186.445312 Z M892.796875,185.117188 L905.804688,124.023438 L916.742188,124.023438 L918.148438,117.460938 L888.65625,117.460938 L887.25,124.023438 L898.226562,124.023438 L885.21875,185.117188 L892.796875,185.117188 Z M924.4375,186.445312 C934.28125,186.419271 940.140625,182.018229 942.015625,173.242188 L942.015625,173.242188 L951.273438,129.648438 C951.585938,128.242188 951.742188,126.953125 951.742188,125.78125 C951.742188,119.583333 947.601562,116.484375 939.320312,116.484375 C929.502604,116.484375 923.65625,120.872396 921.78125,129.648438 L921.78125,129.648438 L912.523438,173.242188 C912.210938,174.648438 912.054688,175.950521 912.054688,177.148438 C912.054688,183.346354 916.182292,186.445312 924.4375,186.445312 Z M925.84375,179.84375 C921.885417,179.84375 919.90625,178.307292 919.90625,175.234375 C919.90625,174.635417 919.984375,173.971354 920.140625,173.242188 L920.140625,173.242188 L929.398438,129.648438 C930.335938,125.247396 933.161458,123.046875 937.875,123.046875 L937.875,123.046875 L937.953125,123.046875 C941.911458,123.072917 943.890625,124.609375 943.890625,127.65625 C943.890625,128.255208 943.8125,128.919271 943.65625,129.648438 L943.65625,129.648438 L934.398438,173.242188 C933.460938,177.643229 930.609375,179.84375 925.84375,179.84375 Z M956.46875,185.117188 L963.148438,153.828125 L968.109375,153.59375 L972.015625,185.117188 L980.453125,185.117188 L974.515625,152.695312 C981.442708,150.585938 985.479167,146.809896 986.625,141.367188 L986.625,141.367188 L988.929688,130.664062 C989.242188,129.153646 989.398438,127.773438 989.398438,126.523438 C989.398438,120.507812 985.6875,117.486979 978.265625,117.460938 L978.265625,117.460938 L963.265625,117.460938 L948.851562,185.117188 L956.46875,185.117188 Z M969.046875,148.007812 L964.359375,148.007812 L969.476562,124.023438 L975.648438,124.023438 C979.580729,124.023438 981.546875,125.559896 981.546875,128.632812 C981.546875,129.257812 981.46875,129.934896 981.3125,130.664062 L981.3125,130.664062 L979.007812,141.367188 C978.356771,144.440104 976.429688,146.523438 973.226562,147.617188 C972.315104,147.877604 970.921875,148.007812 969.046875,148.007812 L969.046875,148.007812 Z M1024.94531,185.117188 L1026.54688,177.695312 L1009.35938,177.695312 L1039.59375,112.929688 L1040.60938,108.242188 L1016.15625,108.242188 L1014.55469,115.664062 L1030.49219,115.664062 L1000.29688,180.429688 L999.28125,185.117188 L1024.94531,185.117188 Z M1046.82031,186.445312 C1056.66406,186.419271 1062.52344,182.018229 1064.39844,173.242188 L1064.39844,173.242188 L1073.65625,129.648438 C1073.96875,128.242188 1074.125,126.953125 1074.125,125.78125 C1074.125,119.583333 1069.98438,116.484375 1061.70312,116.484375 C1051.88542,116.484375 1046.03906,120.872396 1044.16406,129.648438 L1044.16406,129.648438 L1034.90625,173.242188 C1034.59375,174.648438 1034.4375,175.950521 1034.4375,177.148438 C1034.4375,183.346354 1038.5651,186.445312 1046.82031,186.445312 Z M1048.22656,179.84375 C1044.26823,179.84375 1042.28906,178.307292 1042.28906,175.234375 C1042.28906,174.635417 1042.36719,173.971354 1042.52344,173.242188 L1042.52344,173.242188 L1051.78125,129.648438 C1052.71875,125.247396 1055.54427,123.046875 1060.25781,123.046875 L1060.25781,123.046875 L1060.33594,123.046875 C1064.29427,123.072917 1066.27344,124.609375 1066.27344,127.65625 C1066.27344,128.255208 1066.19531,128.919271 1066.03906,129.648438 L1066.03906,129.648438 L1056.78125,173.242188 C1055.84375,177.643229 1052.99219,179.84375 1048.22656,179.84375 Z M1084.90625,186.445312 C1094.75,186.419271 1100.60938,182.018229 1102.48438,173.242188 L1102.48438,173.242188 L1111.74219,129.648438 C1112.05469,128.242188 1112.21094,126.953125 1112.21094,125.78125 C1112.21094,119.583333 1108.07031,116.484375 1099.78906,116.484375 C1089.97135,116.484375 1084.125,120.872396 1082.25,129.648438 L1082.25,129.648438 L1072.99219,173.242188 C1072.67969,174.648438 1072.52344,175.950521 1072.52344,177.148438 C1072.52344,183.346354 1076.65104,186.445312 1084.90625,186.445312 Z M1086.3125,179.84375 C1082.35417,179.84375 1080.375,178.307292 1080.375,175.234375 C1080.375,174.635417 1080.45312,173.971354 1080.60938,173.242188 L1080.60938,173.242188 L1089.86719,129.648438 C1090.80469,125.247396 1093.63021,123.046875 1098.34375,123.046875 L1098.34375,123.046875 L1098.42188,123.046875 C1102.38021,123.072917 1104.35938,124.609375 1104.35938,127.65625 C1104.35938,128.255208 1104.28125,128.919271 1104.125,129.648438 L1104.125,129.648438 L1094.86719,173.242188 C1093.92969,177.643229 1091.07812,179.84375 1086.3125,179.84375 Z M1116.58594,185.117188 L1128.10938,130.898438 L1130.53125,185.117188 L1135.17969,185.117188 L1160.45312,130.429688 L1148.8125,185.117188 L1155.92188,185.117188 L1170.33594,117.460938 L1162.32812,117.460938 L1135.53125,171.992188 L1131.78125,117.460938 L1123.73438,117.460938 L1109.32031,185.117188 L1116.58594,185.117188 Z" id="path-2"></path>
    </defs>
    <g id="Rectangle-Logo" stroke="none" stroke-width="1" fill="none" fill-rule="evenodd">
        <g id="IronComps" fill-rule="nonzero">
            <use fill="#000000" xlink:href="#path-1"></use>
            <use fill="#31435A" xlink:href="#path-1"></use>
        </g>
        <path d="M753.119141,87.065918 L756.788574,69.8833008 L759.007812,69.8833008 C760.794922,69.8833008 762.157227,69.7587891 763.094727,69.5097656 C766.976562,68.4550781 769.305664,66.1040039 770.082031,62.456543 L770.082031,62.456543 L771.378418,56.4360352 C771.554199,55.5864258 771.64209,54.8100586 771.64209,54.1069336 C771.64209,50.7231445 769.554688,49.0239258 765.379883,49.0092773 L765.379883,49.0092773 L756.942383,49.0092773 L748.834473,87.065918 L753.119141,87.065918 Z M760.194336,66.1918945 L757.557617,66.1918945 L760.436035,52.7006836 L763.907715,52.7006836 C766.119629,52.7006836 767.225586,53.5649414 767.225586,55.293457 C767.225586,55.6450195 767.181641,56.0258789 767.09375,56.4360352 L767.09375,56.4360352 L765.797363,62.456543 C765.431152,64.1850586 764.347168,65.3569336 762.54541,65.972168 C762.032715,66.1186523 761.249023,66.1918945 760.194336,66.1918945 L760.194336,66.1918945 Z M777.157227,87.8129883 C782.694336,87.7983398 785.990234,85.3227539 787.044922,80.3862305 L787.044922,80.3862305 L792.252441,55.8647461 C792.428223,55.0737305 792.516113,54.3486328 792.516113,53.6894531 C792.516113,50.203125 790.187012,48.4599609 785.528809,48.4599609 C780.006348,48.4599609 776.717773,50.9282227 775.663086,55.8647461 L775.663086,55.8647461 L770.455566,80.3862305 C770.279785,81.1772461 770.191895,81.909668 770.191895,82.5834961 C770.191895,86.0698242 772.513672,87.8129883 777.157227,87.8129883 Z M777.948242,84.0996094 C775.72168,84.0996094 774.608398,83.2353516 774.608398,81.5068359 C774.608398,81.1699219 774.652344,80.7963867 774.740234,80.3862305 L774.740234,80.3862305 L779.947754,55.8647461 C780.475098,53.3891602 782.064453,52.1513672 784.71582,52.1513672 L784.71582,52.1513672 L784.759766,52.1513672 C786.986328,52.1660156 788.099609,53.0302734 788.099609,54.7441406 C788.099609,55.0810547 788.055664,55.4545898 787.967773,55.8647461 L787.967773,55.8647461 L782.760254,80.3862305 C782.23291,82.8618164 780.628906,84.0996094 777.948242,84.0996094 Z M802.403809,87.065918 L812.489258,60.3251953 L811.214844,87.065918 L818.224121,87.065918 L828.001953,62.0830078 L832.77002,49.0092773 L828.441406,49.0092773 L815.521484,83.1328125 L817.147461,49.0092773 L812.621094,49.0092773 L799.723145,83.1108398 L801.327148,49.0092773 L797.020508,49.0092773 L796.185547,62.0390625 L795.350586,87.065918 L802.403809,87.065918 Z M843.141113,87.065918 L843.932129,83.3745117 L833.473145,83.3745117 L836.351562,69.8833008 L845.360352,69.8833008 L846.129395,66.1918945 L837.120605,66.1918945 L839.999023,52.7006836 L850.458008,52.7006836 L851.249023,49.0092773 L836.505371,49.0092773 L828.397461,87.065918 L843.141113,87.065918 Z M852.040039,87.065918 L855.797363,69.4658203 L858.587891,69.3339844 L860.785156,87.065918 L865.53125,87.065918 L862.191406,68.8286133 C866.087891,67.6420898 868.358398,65.5180664 869.00293,62.456543 L869.00293,62.456543 L870.299316,56.4360352 C870.475098,55.5864258 870.562988,54.8100586 870.562988,54.1069336 C870.562988,50.7231445 868.475586,49.0239258 864.300781,49.0092773 L864.300781,49.0092773 L855.863281,49.0092773 L847.755371,87.065918 L852.040039,87.065918 Z M859.115234,66.1918945 L856.478516,66.1918945 L859.356934,52.7006836 L862.828613,52.7006836 C865.040527,52.7006836 866.146484,53.5649414 866.146484,55.293457 C866.146484,55.6450195 866.102539,56.0258789 866.014648,56.4360352 L866.014648,56.4360352 L864.718262,62.456543 C864.352051,64.1850586 863.268066,65.3569336 861.466309,65.972168 C860.953613,66.1186523 860.169922,66.1918945 859.115234,66.1918945 L859.115234,66.1918945 Z M882.604004,87.065918 L883.39502,83.3745117 L872.936035,83.3745117 L875.814453,69.8833008 L884.823242,69.8833008 L885.592285,66.1918945 L876.583496,66.1918945 L879.461914,52.7006836 L889.920898,52.7006836 L890.711914,49.0092773 L875.968262,49.0092773 L867.860352,87.065918 L882.604004,87.065918 Z M895.765625,87.065918 C901.141602,87.0512695 904.349609,84.5830078 905.389648,79.6611328 L905.389648,79.6611328 L910.333496,56.4360352 C910.509277,55.5864258 910.597168,54.8173828 910.597168,54.1289062 C910.597168,50.7304688 908.502441,49.0239258 904.312988,49.0092773 L904.312988,49.0092773 L895.326172,49.0092773 L887.218262,87.065918 L895.765625,87.065918 Z M896.314941,83.3745117 L892.293945,83.3745117 L898.819824,52.7006836 L902.84082,52.7006836 C905.067383,52.7006836 906.180664,53.5722656 906.180664,55.3154297 C906.180664,55.6523438 906.136719,56.0258789 906.048828,56.4360352 L906.048828,56.4360352 L901.10498,79.6611328 C900.577637,82.1367188 898.980957,83.3745117 896.314941,83.3745117 L896.314941,83.3745117 Z M926.483398,87.065918 C931.859375,87.0512695 935.067383,84.5830078 936.107422,79.6611328 L936.107422,79.6611328 L937.381836,73.6186523 C937.455078,73.3110352 937.491699,73.0107422 937.491699,72.7177734 C937.491699,70.8867188 936.202637,69.3266602 933.624512,68.0375977 C937.242676,66.543457 939.286133,64.6831055 939.754883,62.456543 L939.754883,62.456543 L941.05127,56.4360352 C941.227051,55.5864258 941.314941,54.8173828 941.314941,54.1289062 C941.314941,50.7304688 939.220215,49.0239258 935.030762,49.0092773 L935.030762,49.0092773 L926.043945,49.0092773 L917.936035,87.065918 L926.483398,87.065918 Z M929.867188,66.1918945 L926.65918,66.1918945 L929.537598,52.7006836 L933.558594,52.7006836 C935.785156,52.7006836 936.898438,53.5722656 936.898438,55.3154297 C936.898438,55.6523438 936.854492,56.0258789 936.766602,56.4360352 L936.766602,56.4360352 L935.470215,62.456543 C935.104004,64.1850586 934.02002,65.3569336 932.218262,65.972168 C931.690918,66.1186523 930.907227,66.1918945 929.867188,66.1918945 L929.867188,66.1918945 Z M927.032715,83.3745117 L923.011719,83.3745117 L925.890137,69.8833008 L929.098145,69.8833008 C930.16748,69.8833008 930.914551,69.9638672 931.339355,70.125 C932.584473,70.59375 933.207031,71.4360352 933.207031,72.6518555 C933.207031,72.9594727 933.17041,73.2817383 933.097168,73.6186523 L933.097168,73.6186523 L931.822754,79.6611328 C931.29541,82.1367188 929.69873,83.3745117 927.032715,83.3745117 L927.032715,83.3745117 Z M949.642578,87.065918 L953.04834,71.0478516 L965.528809,49.0092773 L960.980469,49.0092773 L951.598145,67.7739258 L950.213867,49.0092773 L945.709473,49.0092773 L948.763672,71.0478516 L945.35791,87.065918 L949.642578,87.065918 Z" id="poweredby" fill="#000000" fill-rule="nonzero"></path>
        <g id="TractorZoom" fill-rule="nonzero">
            <use fill="#000000" xlink:href="#path-2"></use>
            <use fill="#0A6EF3" xlink:href="#path-2"></use>
        </g>
    </g>
</svg>